<svg id="visual" viewBox="0 0 900 600" width="900" height="600" xmlns="http://www.w3.org/2000/svg" xmlns:xlink="http://www.w3.org/1999/xlink" version="1.1">


<filter id='noiseFilter'>
  <feFlood result="flood" flood-color="#43f9"/>
  <feTurbulence type='fractalNoise' baseFrequency='6.82' numOctaves='1' stitchTiles='stitch'/>
  <feComposite in2="flood" operator="in"/>
</filter>




<rect x="0" y="0" width="900" height="600" fill="#43f9" filter='url(#noiseFilter)'></rect><path d="M0 346L21.5 350C43 354 86 362 128.8 358.2C171.7 354.3 214.3 338.7 257.2 351.8C300 365 343 407 385.8 415.3C428.7 423.7 471.3 398.3 514.2 383.5C557 368.7 600 364.3 642.8 354.8C685.7 345.3 728.3 330.7 771.2 318.5C814 306.3 857 296.7 878.5 291.8L900 287L900 0L878.5 0C857 0 814 0 771.2 0C728.3 0 685.7 0 642.8 0C600 0 557 0 514.2 0C471.3 0 428.7 0 385.8 0C343 0 300 0 257.2 0C214.3 0 171.7 0 128.8 0C86 0 43 0 21.5 0L0 0Z" fill="#ffffff"></path><path d="M0 348L21.5 343.5C43 339 86 330 128.8 312.8C171.7 295.7 214.3 270.3 257.2 257.7C300 245 343 245 385.8 253.5C428.7 262 471.3 279 514.2 293C557 307 600 318 642.8 309.5C685.7 301 728.3 273 771.2 257.5C814 242 857 239 878.5 237.5L900 236L900 0L878.5 0C857 0 814 0 771.2 0C728.3 0 685.7 0 642.8 0C600 0 557 0 514.2 0C471.3 0 428.7 0 385.8 0C343 0 300 0 257.2 0C214.3 0 171.7 0 128.8 0C86 0 43 0 21.5 0L0 0Z" fill="#f9f9f9"></path><path d="M0 143L21.5 152C43 161 86 179 128.8 168C171.7 157 214.3 117 257.2 116.8C300 116.7 343 156.3 385.8 166C428.7 175.7 471.3 155.3 514.2 141C557 126.7 600 118.3 642.8 124.2C685.7 130 728.3 150 771.2 158.2C814 166.3 857 162.7 878.5 160.8L900 159L900 0L878.5 0C857 0 814 0 771.2 0C728.3 0 685.7 0 642.8 0C600 0 557 0 514.2 0C471.3 0 428.7 0 385.8 0C343 0 300 0 257.2 0C214.3 0 171.7 0 128.8 0C86 0 43 0 21.5 0L0 0Z" fill="#f3f3f3"></path></svg>