<svg id="visual" viewBox="0 0 1600 4000" width="1600" height="4000" xmlns="http://www.w3.org/2000/svg" xmlns:xlink="http://www.w3.org/1999/xlink" version="1.1"><path d="M0 281L66.7 274.3C133.3 267.7 266.7 254.3 400 274.3C533.3 294.3 666.7 347.7 800 394.3C933.3 441 1066.7 481 1200 461C1333.3 441 1466.7 361 1533.3 321L1600 281L1600 0L1533.3 0C1466.7 0 1333.3 0 1200 0C1066.7 0 933.3 0 800 0C666.7 0 533.3 0 400 0C266.7 0 133.3 0 66.7 0L0 0Z" fill="#ffffff"></path><path d="M0 1241L66.7 1267.7C133.3 1294.3 266.7 1347.7 400 1407.7C533.3 1467.7 666.7 1534.3 800 1501C933.3 1467.7 1066.7 1334.3 1200 1234.3C1333.3 1134.3 1466.7 1067.7 1533.3 1034.3L1600 1001L1600 279L1533.3 319C1466.7 359 1333.3 439 1200 459C1066.7 479 933.3 439 800 392.3C666.7 345.7 533.3 292.3 400 272.3C266.7 252.3 133.3 265.7 66.7 272.3L0 279Z" fill="#eaeaea"></path><path d="M0 1801L66.7 1821C133.3 1841 266.7 1881 400 1914.3C533.3 1947.7 666.7 1974.3 800 1894.3C933.3 1814.3 1066.7 1627.7 1200 1501C1333.3 1374.3 1466.7 1307.7 1533.3 1274.3L1600 1241L1600 999L1533.3 1032.3C1466.7 1065.7 1333.3 1132.3 1200 1232.3C1066.7 1332.3 933.3 1465.7 800 1499C666.7 1532.3 533.3 1465.7 400 1405.7C266.7 1345.7 133.3 1292.3 66.7 1265.7L0 1239Z" fill="#d6d6d6"></path><path d="M0 2561L66.7 2567.7C133.3 2574.3 266.7 2587.7 400 2627.7C533.3 2667.7 666.7 2734.3 800 2694.3C933.3 2654.3 1066.7 2507.7 1200 2414.3C1333.3 2321 1466.7 2281 1533.3 2261L1600 2241L1600 1239L1533.3 1272.3C1466.7 1305.7 1333.3 1372.3 1200 1499C1066.7 1625.7 933.3 1812.3 800 1892.3C666.7 1972.3 533.3 1945.7 400 1912.3C266.7 1879 133.3 1839 66.7 1819L0 1799Z" fill="#c2c2c2"></path><path d="M0 3241L66.7 3241C133.3 3241 266.7 3241 400 3261C533.3 3281 666.7 3321 800 3227.7C933.3 3134.3 1066.7 2907.7 1200 2787.7C1333.3 2667.7 1466.7 2654.3 1533.3 2647.7L1600 2641L1600 2239L1533.3 2259C1466.7 2279 1333.3 2319 1200 2412.3C1066.7 2505.7 933.3 2652.3 800 2692.3C666.7 2732.3 533.3 2665.7 400 2625.7C266.7 2585.7 133.3 2572.3 66.7 2565.7L0 2559Z" fill="#aeaeae"></path><path d="M0 4001L66.7 4001C133.3 4001 266.7 4001 400 4001C533.3 4001 666.7 4001 800 4001C933.3 4001 1066.7 4001 1200 4001C1333.3 4001 1466.7 4001 1533.3 4001L1600 4001L1600 2639L1533.3 2645.7C1466.7 2652.3 1333.3 2665.7 1200 2785.7C1066.7 2905.7 933.3 3132.3 800 3225.7C666.7 3319 533.3 3279 400 3259C266.7 3239 133.3 3239 66.7 3239L0 3239Z" fill="#9b9b9b"></path></svg>